<svg height="512" viewBox="0 0 128 128" width="512" xmlns="http://www.w3.org/2000/svg"><g id="Flat"><g id="Color"><rect fill="#ffb300" height="102" rx="12" width="104" x="1.5" y="1.5"/><path d="m37.5 1.5v26.651a3 3 0 0 0 4.813 2.389l9.374-7.112a3 3 0 0 1 3.626 0l9.374 7.112a3 3 0 0 0 4.813-2.389v-26.651z" fill="#f5f5f5"/><rect fill="#f5f5f5" height="10" rx="3" width="19.5" x="12.5" y="82.5"/><circle cx="96" cy="96" fill="#0071DC" r="30.5"/><circle cx="96" cy="96" fill="#eee" r="22"/><path d="m103 94h-5.5v-9.5a1.5 1.5 0 0 0 -3 0v9.5a3 3 0 0 0 3 3h5.5a1.5 1.5 0 0 0 0-3z" fill="#e0e0e0"/><g fill="#ffa000"><path d="m59.25 43.625h8.25a1.5 1.5 0 0 0 0-3h-8.25a4.505 4.505 0 0 0 -4.5 4.5v12.75a4.505 4.505 0 0 0 4.5 4.5h8.25a1.5 1.5 0 0 0 0-3h-8.25a1.5 1.5 0 0 1 -1.5-1.5v-4.875h9.75a1.5 1.5 0 0 0 0-3h-9.75v-4.875a1.5 1.5 0 0 1 1.5-1.5z"/><path d="m78 62.375h8.25a1.5 1.5 0 0 0 0-3h-8.25a1.5 1.5 0 0 1 -1.5-1.5v-4.875h9.75a1.5 1.5 0 0 0 0-3h-9.75v-4.875a1.5 1.5 0 0 1 1.5-1.5h8.25a1.5 1.5 0 0 0 0-3h-8.25a4.505 4.505 0 0 0 -4.5 4.5v12.75a4.505 4.505 0 0 0 4.5 4.5z"/><path d="m32 40.625h-8.25a4.505 4.505 0 0 0 -4.5 4.5v15.75a1.5 1.5 0 0 0 3 0v-7.875h7.875a1.5 1.5 0 0 0 0-3h-7.875v-4.875a1.5 1.5 0 0 1 1.5-1.5h8.25a1.5 1.5 0 0 0 0-3z"/><path d="m51.5 46.813a6.194 6.194 0 0 0 -6.188-6.188h-3.562a4.505 4.505 0 0 0 -4.5 4.5v15.75a1.5 1.5 0 0 0 3 0v-6.175l8.79 7.325a1.5 1.5 0 0 0 1.92-2.3l-8.067-6.725h2.419a6.194 6.194 0 0 0 6.188-6.187zm-11.25 3.187v-4.875a1.5 1.5 0 0 1 1.5-1.5h3.562a3.188 3.188 0 1 1 0 6.375z"/></g></g></g></svg>