<svg height="512" viewBox="0 0 128 128" width="512" xmlns="http://www.w3.org/2000/svg"><g id="Flat"><g id="Color"><rect fill="#f5f5f5" height="125" rx="12" width="125" x="1.5" y="1.5"/><path d="m126.5 13.5v15h-125v-15a12 12 0 0 1 12-12h101a12 12 0 0 1 12 12z" fill="#0071DC"/><g fill="#fff"><circle cx="15.5" cy="15.5" r="3"/><circle cx="47.5" cy="15.5" r="3"/><circle cx="31.5" cy="15.5" r="3"/><path d="m111.5 12.5h-16a3 3 0 0 0 0 6h16a3 3 0 0 0 0-6z"/></g><circle cx="64" cy="71" fill="#ffb300" r="30.5"/><circle cx="64" cy="71" fill="#ffa000" r="22"/><path d="m118.132 52.7a3.516 3.516 0 0 0 -4.95 0l-5.657 5.657a3.5 3.5 0 0 0 4.95 4.949l5.657-5.657a3.515 3.515 0 0 0 0-4.949z" fill="#ffb300"/><path d="m118.132 84.354-5.657-5.654a3.5 3.5 0 0 0 -4.95 4.949l5.657 5.657a3.5 3.5 0 0 0 4.95-4.949z" fill="#ffb300"/><path d="m9.868 52.7a3.516 3.516 0 0 1 4.95 0l5.657 5.657a3.5 3.5 0 0 1 -4.95 4.949l-5.657-5.66a3.515 3.515 0 0 1 0-4.946z" fill="#ffb300"/><path d="m9.868 84.354 5.657-5.654a3.5 3.5 0 0 1 4.95 4.949l-5.657 5.651a3.5 3.5 0 0 1 -4.95-4.949z" fill="#ffb300"/><path d="m78.692 83.15-4.139 13.9a3 3 0 0 0 4.375 3.455l2.012-1.162 7.822 13.548a6 6 0 0 0 8.2 2.2l3.826-2.21a6 6 0 0 0 2.2-8.2l-7.829-13.551 2.013-1.162a3 3 0 0 0 -.8-5.516l-14.1-3.364a3 3 0 0 0 -3.58 2.062z" fill="#0071DC"/><path d="m63.159 64.092h2.523a1.865 1.865 0 0 1 1.863 1.863 1.5 1.5 0 0 0 3 0 4.868 4.868 0 0 0 -4.863-4.863h-.182v-1.863a1.5 1.5 0 0 0 -3 0v1.9a5.7 5.7 0 0 0 .659 11.371h1.682a2.7 2.7 0 1 1 0 5.408h-2.523a1.865 1.865 0 0 1 -1.863-1.863 1.5 1.5 0 0 0 -3 0 4.868 4.868 0 0 0 4.863 4.863h.182v1.863a1.5 1.5 0 1 0 3 0v-1.9a5.7 5.7 0 0 0 -.659-11.371h-1.682a2.7 2.7 0 0 1 0-5.408z" fill="#ffb300"/></g></g></svg>