<svg height="512" viewBox="0 0 128 128" width="512" xmlns="http://www.w3.org/2000/svg"><g id="Flat"><g id="Color"><rect fill="#e0e0e0" height="125" rx="12" width="75" x="26.5" y="1.5"/><path d="m44.2 1.5 3.589 6.688a7.812 7.812 0 0 0 6.811 4.312h18.8a7.813 7.813 0 0 0 6.811-4.312l3.589-6.688z" fill="#bdbdbd"/><g fill="#f5f5f5"><path d="m9.8 50.156a28.4 28.4 0 0 1 46.626 9.174 3.034 3.034 0 0 0 1.735 1.69 24.383 24.383 0 0 0 8.8 1.691 3.291 3.291 0 0 1 2.56 5.388 33.613 33.613 0 0 1 -10.956 9.128 2.909 2.909 0 0 0 -1.489 1.694 28.4 28.4 0 1 1 -47.276-28.765z"/><path d="m122.626 90.551a18.629 18.629 0 0 0 -22.243-6.766 18.154 18.154 0 0 0 -8.707 7.355 1.95 1.95 0 0 1 -1.3.889 15.858 15.858 0 0 1 -5.838.085 2.126 2.126 0 0 0 -2.216 3.173 22.323 22.323 0 0 0 6.078 7.113 1.925 1.925 0 0 1 .778 1.259 18.747 18.747 0 0 0 25.374 14.552 18.432 18.432 0 0 0 8.074-27.66z"/><path d="m109.507 19.092a20.918 20.918 0 0 0 -24.642 24.854 2.238 2.238 0 0 1 -.36 1.748 17.964 17.964 0 0 1 -4.668 4.666 2.425 2.425 0 0 0 .663 4.34 24.753 24.753 0 0 0 10.451 1.04 2.142 2.142 0 0 1 1.608.418 20.918 20.918 0 1 0 16.946-37.07z"/></g><path d="m105.5 33.217a5.817 5.817 0 0 1 4.572-2.217 5.886 5.886 0 0 1 5.859 5.913c.147 5.249-3.191 9.39-9.058 12.725a2.783 2.783 0 0 1 -2.746 0c-5.867-3.335-9.2-7.476-9.058-12.725a5.886 5.886 0 0 1 5.859-5.913 5.817 5.817 0 0 1 4.572 2.217z" fill="#0071DC"/><path d="m36.5 62.128s.8-3.553 1.176-4.7c1.091-3.331-3.373-9.512-5.589-4.9-1.714 3.554-4.587 12.6-9.705 12.482l-1.443.059a1.5 1.5 0 0 0 -1.439 1.5v10.631a1.5 1.5 0 0 0 .829 1.341l7.9 3.952a6 6 0 0 0 2.683.634h5.588a9 9 0 0 0 9-9v-3a9 9 0 0 0 -9-8.999z" fill="#ffccbc"/><rect fill="#0071DC" height="10" rx="3" transform="matrix(0 1 -1 0 92.128 53.128)" width="21" x="9" y="67.628"/><path d="m74.5 112h-21a1.5 1.5 0 0 0 0 3h21a1.5 1.5 0 0 0 0-3z" fill="#bdbdbd"/><path d="m99 97.5a1.5 1.5 0 0 0 1.5 1.5h2.948l-1.071 4h-2.877a1.5 1.5 0 0 0 0 3h2.073l-.762 2.844a1.5 1.5 0 1 0 2.9.777l.97-3.621h3.962l-.75 2.8a1.5 1.5 0 1 0 2.9.777l.959-3.577h3.748a1.5 1.5 0 0 0 0-3h-2.948l1.071-4h2.877a1.5 1.5 0 0 0 0-3h-2.073l.762-2.844a1.5 1.5 0 1 0 -2.9-.777l-.968 3.621h-3.962l.75-2.8a1.5 1.5 0 1 0 -2.9-.777l-.957 3.577h-3.752a1.5 1.5 0 0 0 -1.5 1.5zm7.555 1.5h3.962l-1.072 4h-3.962z" fill="#e0e0e0"/></g></g></svg>