<svg class="dml-offers-bar__icon" width="40" height="40" viewBox="0 0 40 40" fill="none" xmlns="http://www.w3.org/2000/svg">
                    <path d="M21.387 7.118 6.414 22.091a2 2 0 0 0 0 2.829l8.666 8.666a2 2 0 0 0 2.829 0l14.973-14.974a2 2 0 0 0 .577-1.595l-.722-7.944a2 2 0 0 0-1.81-1.81l-7.944-.722a2 2 0 0 0-1.596.577z" fill="#fff"></path>
                    <path fill-rule="evenodd" clip-rule="evenodd" d="M6.06 25.273a2.5 2.5 0 0 1 0-3.535L21.035 6.765a2.5 2.5 0 0 1 1.994-.722l7.944.722a2.5 2.5 0 0 1 2.263 2.263l.722 7.944a2.5 2.5 0 0 1-.722 1.994L18.262 33.939a2.5 2.5 0 0 1-3.536 0l-8.665-8.666zm.708-2.828a1.5 1.5 0 0 0 0 2.121l8.666 8.666a1.5 1.5 0 0 0 2.12 0L32.529 18.26a1.5 1.5 0 0 0 .433-1.197L32.24 9.12a1.5 1.5 0 0 0-1.358-1.358l-7.944-.722a1.5 1.5 0 0 0-1.196.433L6.768 22.445z" fill="#000"></path>
                    <path fill-rule="evenodd" clip-rule="evenodd" d="M27.282 15.902a2.251 2.251 0 1 0-3.184-3.183 2.251 2.251 0 0 0 3.184 3.183zm.707.707a3.251 3.251 0 1 0-4.598-4.598 3.251 3.251 0 0 0 4.598 4.598zM10.393 17.405a.5.5 0 0 1 .708 0l.957.958a.5.5 0 1 1-.707.707l-.958-.958a.5.5 0 0 1 0-.707zm2.874 2.873a.5.5 0 0 1 .707 0l1.916 1.916a.5.5 0 1 1-.707.707l-1.916-1.916a.5.5 0 0 1 0-.707zM17.1 24.11a.5.5 0 0 1 .707 0l1.915 1.915a.5.5 0 1 1-.707.708L17.1 24.817a.5.5 0 0 1 0-.707zm3.83 3.831a.5.5 0 0 1 .708 0l.958.958a.5.5 0 1 1-.707.707l-.958-.958a.5.5 0 0 1 0-.707z" fill="#000"></path>
                </svg>