<svg class="dml-offers-bar__icon" width="40" height="40" viewBox="0 0 40 40" fill="none" xmlns="http://www.w3.org/2000/svg">
                    <path d="M5 8v21h32v-7.875L31.98 13H23.5v13H21V8H5z" fill="#fff"></path>
                    <path fill-rule="evenodd" clip-rule="evenodd" d="M5 7.5a.5.5 0 0 0-.5.5v4.5H2a.5.5 0 0 0 0 1h10a.5.5 0 0 0 0-1H5.5v-4h15V26a.5.5 0 0 0 .5.5h2.5a.5.5 0 0 0 .5-.5V13.5h7.702l4.798 7.767V28.5h-2.611a4.502 4.502 0 0 0-8.778 0h-8.223a4.502 4.502 0 0 0-8.776 0H5.5v-14h-1V29a.5.5 0 0 0 .5.5h3a4.5 4.5 0 1 0 9 0h8a4.5 4.5 0 1 0 9 0h3a.5.5 0 0 0 .5-.5v-7.875a.5.5 0 0 0-.075-.263l-5.02-8.125a.5.5 0 0 0-.425-.237H23.5a.5.5 0 0 0-.5.5v12.5h-1.5V8a.5.5 0 0 0-.5-.5H5zM6.5 17a.5.5 0 0 1 .5-.5h7a.5.5 0 0 1 0 1H7a.5.5 0 0 1-.5-.5zM16 29.5a3.5 3.5 0 1 1-7 0 3.5 3.5 0 0 1 7 0zm17 0a3.5 3.5 0 1 1-7 0 3.5 3.5 0 0 1 7 0z" fill="#000"></path>
                </svg>