<svg xmlns="http://www.w3.org/2000/svg" class="dml-offers-bar__icon" width="40" viewBox="0 0 40 40" fill="none"><path d="M3 14a4 4 0 0 1 4-4h26a4 4 0 0 1 4 4v12a4 4 0 0 1-4 4H7a4 4 0 0 1-4-4V14z" fill="#fff"></path><path fill-rule="evenodd" clip-rule="evenodd" d="M7 9h26a5 5 0 0 1 5 5v12a5 5 0 0 1-5 5H7a5 5 0 0 1-5-5V14a5 5 0 0 1 5-5zm0 1a4 4 0 0 0-4 4v12a4 4 0 0 0 4 4h26a4 4 0 0 0 4-4V14a4 4 0 0 0-4-4H7z" fill="#000"></path><path fill-rule="evenodd" clip-rule="evenodd" d="M7.467 14.756c-.197-.519-.967-.377-.967.178V26a.5.5 0 1 1-1 0V14.934c0-1.665 2.309-2.09 2.902-.534l4.13 10.844c.198.519.968.377.968-.178V14a.5.5 0 0 1 1 0v11.066c0 1.666-2.309 2.09-2.902.534l-4.13-10.844zM19 14.5a1.5 1.5 0 0 0-1.5 1.5v8a1.5 1.5 0 0 0 1.5 1.5h4a.5.5 0 0 1 0 1h-4a2.5 2.5 0 0 1-2.5-2.5v-8a2.5 2.5 0 0 1 2.5-2.5h4a.5.5 0 0 1 0 1h-4z" fill="#000"></path><path fill-rule="evenodd" clip-rule="evenodd" d="M16.5 20a.5.5 0 0 1 .5-.5h4a.5.5 0 0 1 0 1h-4a.5.5 0 0 1-.5-.5zM25 13.5a.5.5 0 0 1 .5.5v11.121c0 .603.87.69.99.1l1.54-7.532c.328-1.599 2.612-1.599 2.94 0l1.54 7.532c.12.59.99.503.99-.1V14a.5.5 0 0 1 1 0v11.121c0 1.808-2.607 2.072-2.97.3l-1.54-7.531c-.11-.533-.87-.533-.98 0l-1.54 7.532c-.363 1.77-2.97 1.507-2.97-.301V14a.5.5 0 0 1 .5-.5z" fill="#000"></path></svg>