<?xml version="1.0" encoding="UTF-8"?>
<svg version="1.1" xmlns="http://www.w3.org/2000/svg" width="136" height="62">
<path d="M0 0 C4.38939674 1.75733478 6.54729453 4.2643536 9 8.25 C10.22780608 12.8542728 10.49037532 16.44073355 9 21 C7.25580695 23.625926 5.28098957 25.83061848 3 28 C3.928125 28.309375 4.85625 28.61875 5.8125 28.9375 C12 31 12 31 13.25 33.125 C14.33435492 37.28169385 13.93052287 41.13895427 12 45 C9.9375 45.625 9.9375 45.625 8 46 C10.00931695 47.19099747 10.00931695 47.19099747 12.5625 47 C13.366875 47 14.17125 47 15 47 C16 48 16 48 16.25 50.75 C15.96232154 54.48981994 15.48949046 56.18928496 13 59 C7.95189916 60.01887933 2.94891286 60.14846016 -2.18261719 60.14526367 C-2.96885971 60.14862228 -3.75510223 60.1519809 -4.56517029 60.15544128 C-7.1424216 60.16487687 -9.71960754 60.16689001 -12.296875 60.16796875 C-14.09572374 60.17118423 -15.89457222 60.17454852 -17.69342041 60.17805481 C-21.45235807 60.18402591 -25.21127278 60.18589656 -28.97021484 60.18530273 C-33.7912119 60.18520071 -38.61206301 60.19890337 -43.43302536 60.21607494 C-47.14242228 60.22717457 -50.85178354 60.22922265 -54.56119537 60.22869301 C-56.33943438 60.22987426 -58.11767428 60.23430413 -59.89589691 60.24202538 C-62.37569072 60.25179307 -64.85516225 60.24896114 -67.33496094 60.24291992 C-68.07058762 60.24853943 -68.80621429 60.25415894 -69.56413269 60.25994873 C-73.26762598 60.2369539 -74.83264809 60.11156794 -78 58 C-78.309375 58.66 -78.61875 59.32 -78.9375 60 C-81.43384577 62.42069893 -82.24695447 62.2963885 -85.625 62.3125 C-89.8163606 62.1836394 -89.8163606 62.1836394 -91 61 C-91.14115161 58.32941149 -91.04247107 55.67567762 -91 53 C-91.99 53.66 -92.98 54.32 -94 55 C-98.66488876 55.82989594 -102.03294265 55.61181179 -106.0625 53.0625 C-108.67483456 48.93332601 -109.05468539 45.76231017 -108 41 C-106.57266757 38.30775572 -104.99456713 36.34361638 -103 34 C-103.495 33.505 -103.495 33.505 -104 33 C-104.04080783 31.00041636 -104.04254356 28.99954746 -104 27 C-104.99 27 -105.98 27 -107 27 C-107.309375 27.969375 -107.61875 28.93875 -107.9375 29.9375 C-109 33 -109 33 -110 34 C-111.49738124 34.0979057 -112.99942892 34.12974864 -114.5 34.125 C-115.3146875 34.12757812 -116.129375 34.13015625 -116.96875 34.1328125 C-119 34 -119 34 -120 33 C-119.77294961 26.09388392 -116.63271603 20.66159386 -113.5 14.625 C-112.98824219 13.61566406 -112.47648437 12.60632813 -111.94921875 11.56640625 C-108.18297133 4.18297133 -108.18297133 4.18297133 -107 3 C-105.35769636 2.8754514 -103.70947724 2.82431476 -102.0625 2.8125 C-101.16660156 2.79832031 -100.27070312 2.78414063 -99.34765625 2.76953125 C-97 3 -97 3 -95 5 C-94.59952556 7.32275177 -94.2602896 9.65739357 -94 12 C-93.18595703 11.67515625 -93.18595703 11.67515625 -92.35546875 11.34375 C-91.64003906 11.0653125 -90.92460938 10.786875 -90.1875 10.5 C-89.47980469 10.2215625 -88.77210937 9.943125 -88.04296875 9.65625 C-86 9 -86 9 -83 9 C-82.67 6.69 -82.34 4.38 -82 2 C-79.85423363 1.97314062 -77.70837355 1.95366912 -75.5625 1.9375 C-74.36753906 1.92589844 -73.17257813 1.91429688 -71.94140625 1.90234375 C-69 2 -69 2 -68 3 C-67.95919217 4.99958364 -67.95745644 7.00045254 -68 9 C-67.2575 9.12375 -66.515 9.2475 -65.75 9.375 C-63 10 -63 10 -61.125 11.25 C-60.073125 11.62125 -60.073125 11.62125 -59 12 C-58.07574219 11.52691406 -57.15148438 11.05382813 -56.19921875 10.56640625 C-50.63553934 8.05177337 -44.67374623 8.60522614 -38.6875 8.6875 C-36.89989258 8.68266602 -36.89989258 8.68266602 -35.07617188 8.67773438 C-26.26724107 8.73275893 -26.26724107 8.73275893 -24 11 C-23.98828125 13.12890625 -23.98828125 13.12890625 -24.3125 15.5625 C-24.41175781 16.36816406 -24.51101562 17.17382812 -24.61328125 18.00390625 C-25 20 -25 20 -26 21 C-27.66617115 21.04063832 -29.33388095 21.042721 -31 21 C-31.33 23.64 -31.66 26.28 -32 29 C-31.36191406 29.06058594 -30.72382812 29.12117188 -30.06640625 29.18359375 C-28.82697266 29.30927734 -28.82697266 29.30927734 -27.5625 29.4375 C-26.73878906 29.51871094 -25.91507812 29.59992187 -25.06640625 29.68359375 C-23 30 -23 30 -22 31 C-22.06564064 32.50376737 -22.20421992 34.00452042 -22.375 35.5 C-22.47425781 36.39460938 -22.57351562 37.28921875 -22.67578125 38.2109375 C-22.78277344 39.13132813 -22.88976562 40.05171875 -23 41 C-23.18786219 42.70829354 -23.37539212 44.41662368 -23.5625 46.125 C-23.706875 47.40375 -23.85125 48.6825 -24 50 C-23.37738281 49.51917969 -22.75476563 49.03835937 -22.11328125 48.54296875 C-17.81286849 46.41164749 -13.92750442 46.43621376 -9.1875 46.3125 C-8.30384766 46.27833984 -7.42019531 46.24417969 -6.50976562 46.20898438 C-4.34027833 46.12689567 -2.1701611 46.06176121 0 46 C-2.97 44.35 -5.94 42.7 -9 41 C-9 40.34 -9 39.68 -9 39 C-10.65 38.67 -12.3 38.34 -14 38 C-13.67 35.69 -13.34 33.38 -13 31 C-11.35 30.67 -9.7 30.34 -8 30 C-9.0828125 29.87625 -9.0828125 29.87625 -10.1875 29.75 C-14.79072697 28.52247281 -17.21923112 26.18461486 -19.8125 22.25 C-21.72310412 17.02097821 -21.72310412 12.97902179 -19.8125 7.75 C-14.75759974 0.08049615 -8.65801009 -1.03896121 0 0 Z M-91 47 C-90.34 48.32 -89.68 49.64 -89 51 C-89.33 49.68 -89.66 48.36 -90 47 C-90.33 47 -90.66 47 -91 47 Z " fill="#104C16" transform="translate(120,0)"/>
<path d="M0 0 C4.38939674 1.75733478 6.54729453 4.2643536 9 8.25 C10.22780608 12.8542728 10.49037532 16.44073355 9 21 C7.25580695 23.625926 5.28098957 25.83061848 3 28 C3.928125 28.309375 4.85625 28.61875 5.8125 28.9375 C12 31 12 31 13.25 33.125 C14.33435492 37.28169385 13.93052287 41.13895427 12 45 C9.9375 45.625 9.9375 45.625 8 46 C10.00931695 47.19099747 10.00931695 47.19099747 12.5625 47 C13.366875 47 14.17125 47 15 47 C16 48 16 48 16.25 50.75 C15.96232154 54.48981994 15.48949046 56.18928496 13 59 C7.95189916 60.01887933 2.94891286 60.14846016 -2.18261719 60.14526367 C-2.96885971 60.14862228 -3.75510223 60.1519809 -4.56517029 60.15544128 C-7.1424216 60.16487687 -9.71960754 60.16689001 -12.296875 60.16796875 C-14.09572374 60.17118423 -15.89457222 60.17454852 -17.69342041 60.17805481 C-21.45235807 60.18402591 -25.21127278 60.18589656 -28.97021484 60.18530273 C-33.7912119 60.18520071 -38.61206301 60.19890337 -43.43302536 60.21607494 C-47.14242228 60.22717457 -50.85178354 60.22922265 -54.56119537 60.22869301 C-56.33943438 60.22987426 -58.11767428 60.23430413 -59.89589691 60.24202538 C-62.37569072 60.25179307 -64.85516225 60.24896114 -67.33496094 60.24291992 C-68.07058762 60.24853943 -68.80621429 60.25415894 -69.56413269 60.25994873 C-73.26762598 60.2369539 -74.83264809 60.11156794 -78 58 C-78.309375 58.66 -78.61875 59.32 -78.9375 60 C-81.43384577 62.42069893 -82.24695447 62.2963885 -85.625 62.3125 C-89.8163606 62.1836394 -89.8163606 62.1836394 -91 61 C-91.14115161 58.32941149 -91.04247107 55.67567762 -91 53 C-91.99 53.66 -92.98 54.32 -94 55 C-98.66488876 55.82989594 -102.03294265 55.61181179 -106.0625 53.0625 C-108.31174035 49.50724912 -108.71547338 47.36593606 -108.5078125 43.2265625 C-107.65965939 39.50773732 -105.69831685 37.63085893 -103 35 C-102.34 35.99 -101.68 36.98 -101 38 C-101.495 38.515625 -101.99 39.03125 -102.5 39.5625 C-104.52701444 42.85639847 -104.35173852 45.20122401 -104 49 C-102.21342243 51.21370051 -102.21342243 51.21370051 -99.8359375 51.1953125 C-99.02382812 51.17210937 -98.21171875 51.14890625 -97.375 51.125 C-96.55773437 51.10695312 -95.74046875 51.08890625 -94.8984375 51.0703125 C-94.27195312 51.04710937 -93.64546875 51.02390625 -93 51 C-93.04125 50.319375 -93.0825 49.63875 -93.125 48.9375 C-92.97450035 45.40075832 -92.05624147 42.36676967 -91 39 C-90.67 39.66 -90.34 40.32 -90 41 C-89.34 41 -88.68 41 -88 41 C-88 42.65 -88 44.3 -88 46 C-87.34 46 -86.68 46 -86 46 C-86.14148989 47.6045556 -86.28835686 49.20863767 -86.4375 50.8125 C-86.51871094 51.70582031 -86.59992188 52.59914062 -86.68359375 53.51953125 C-87 56 -87 56 -88 59 C-86.02 59 -84.04 59 -82 59 C-81.67 54.71 -81.34 50.42 -81 46 C-79.68 46 -78.36 46 -77 46 C-76.505 50.95 -76.505 50.95 -76 56 C-70.67829506 56.29562367 -70.67829506 56.29562367 -66 54 C-66 54.99 -66 55.98 -66 57 C-62.56769552 56.73606499 -62.56769552 56.73606499 -59 56 C-58.34 55.01 -57.68 54.02 -57 53 C-56.649375 53.495 -56.29875 53.99 -55.9375 54.5 C-53.05625711 56.73063966 -50.52990974 56.19980621 -47 56 C-46.67 55.01 -46.34 54.02 -46 53 C-46.804375 53.020625 -47.60875 53.04125 -48.4375 53.0625 C-51 53 -51 53 -52 52 C-52.1875 48.5625 -52.1875 48.5625 -52 45 C-49.50494038 42.50494038 -48.32671112 42.64051624 -44.875 42.375 C-43.96492188 42.30023438 -43.05484375 42.22546875 -42.1171875 42.1484375 C-41.41851562 42.09945312 -40.71984375 42.05046875 -40 42 C-40.14204741 43.58367747 -40.28880153 45.16693318 -40.4375 46.75 C-40.55931641 48.07257812 -40.55931641 48.07257812 -40.68359375 49.421875 C-40.96238465 51.69350452 -41.38790577 53.79851823 -42 56 C-40.02 56 -38.04 56 -36 56 C-35.67 54.68 -35.34 53.36 -35 52 C-34.505 53.98 -34.505 53.98 -34 56 C-31.36 56.33 -28.72 56.66 -26 57 C-26 55.68 -26 54.36 -26 53 C-26.66 53 -27.32 53 -28 53 C-28.43230491 45.65081658 -26.81774185 39.09784913 -25 32 C-25.90363281 32.09539063 -26.80726562 32.19078125 -27.73828125 32.2890625 C-28.91777344 32.39992187 -30.09726563 32.51078125 -31.3125 32.625 C-32.48425781 32.74101563 -33.65601562 32.85703125 -34.86328125 32.9765625 C-38 33 -38 33 -41 31 C-39.35 31 -37.7 31 -36 31 C-35.94392578 30.09507813 -35.94392578 30.09507813 -35.88671875 29.171875 C-35.59332813 25.60516547 -35.33054396 22.67761513 -33.75 19.4375 C-32 18 -32 18 -29.3125 17.75 C-28.549375 17.8325 -27.78625 17.915 -27 18 C-27 16.02 -27 14.04 -27 12 C-27.78375 12.474375 -28.5675 12.94875 -29.375 13.4375 C-30.88948678 14.33898023 -32.4235897 15.21179485 -34 16 C-34 15.01 -34 14.02 -34 13 C-35.918125 13.0309375 -35.918125 13.0309375 -37.875 13.0625 C-41.75 13.125 -41.75 13.125 -44 12 C-50.00902262 11.93990977 -54.30278519 13.08565433 -59 17 C-60.83300909 19.10575643 -60.83300909 19.10575643 -62 21 C-62.66 18.69 -63.32 16.38 -64 14 C-68.19589427 12.83447381 -68.82091936 12.91045968 -73 15 C-72.34 11.7 -71.68 8.4 -71 5 C-73.97 5 -76.94 5 -80 5 C-80 5.99 -80 6.98 -80 8 C-79.34 8 -78.68 8 -78 8 C-78 8.99 -78 9.98 -78 11 C-78.73605469 11.15855469 -79.47210938 11.31710937 -80.23046875 11.48046875 C-88.32790028 13.29693967 -88.32790028 13.29693967 -94 19 C-94.23334443 21.36677924 -94.19462192 23.54625577 -93.98046875 25.9140625 C-94 28 -94 28 -96 31 C-96.33931227 28.33397504 -96.67157176 25.66736986 -97 23 C-97.09539062 22.25621094 -97.19078125 21.51242188 -97.2890625 20.74609375 C-97.89227676 15.79111949 -98.09075591 10.99157504 -98 6 C-101.05272994 5.74977623 -102.3160205 5.66501542 -105 7 C-107.72747439 10.7364913 -109.53714409 14.8588269 -111.4375 19.0625 C-111.97826172 20.20267578 -112.51902344 21.34285156 -113.07617188 22.51757812 C-114.40817649 25.33482683 -115.71451926 28.16129604 -117 31 C-114.54578022 30.65721873 -114.54578022 30.65721873 -112 30 C-111.2884375 28.9790625 -111.2884375 28.9790625 -110.5625 27.9375 C-110.046875 27.298125 -109.53125 26.65875 -109 26 C-105.8125 25.75 -105.8125 25.75 -103 26 C-103 27.65 -103 29.3 -103 31 C-103.33 29.68 -103.66 28.36 -104 27 C-104.99 27 -105.98 27 -107 27 C-107.309375 27.969375 -107.61875 28.93875 -107.9375 29.9375 C-109 33 -109 33 -110 34 C-111.49738124 34.0979057 -112.99942892 34.12974864 -114.5 34.125 C-115.3146875 34.12757812 -116.129375 34.13015625 -116.96875 34.1328125 C-119 34 -119 34 -120 33 C-119.77294961 26.09388392 -116.63271603 20.66159386 -113.5 14.625 C-112.98824219 13.61566406 -112.47648437 12.60632813 -111.94921875 11.56640625 C-108.18297133 4.18297133 -108.18297133 4.18297133 -107 3 C-105.35769636 2.8754514 -103.70947724 2.82431476 -102.0625 2.8125 C-101.16660156 2.79832031 -100.27070312 2.78414063 -99.34765625 2.76953125 C-97 3 -97 3 -95 5 C-94.59952556 7.32275177 -94.2602896 9.65739357 -94 12 C-93.18595703 11.67515625 -93.18595703 11.67515625 -92.35546875 11.34375 C-91.64003906 11.0653125 -90.92460938 10.786875 -90.1875 10.5 C-89.47980469 10.2215625 -88.77210937 9.943125 -88.04296875 9.65625 C-86 9 -86 9 -83 9 C-82.67 6.69 -82.34 4.38 -82 2 C-79.85423363 1.97314062 -77.70837355 1.95366912 -75.5625 1.9375 C-74.36753906 1.92589844 -73.17257813 1.91429688 -71.94140625 1.90234375 C-69 2 -69 2 -68 3 C-67.95919217 4.99958364 -67.95745644 7.00045254 -68 9 C-67.2575 9.12375 -66.515 9.2475 -65.75 9.375 C-63 10 -63 10 -61.125 11.25 C-60.073125 11.62125 -60.073125 11.62125 -59 12 C-58.07574219 11.52691406 -57.15148438 11.05382813 -56.19921875 10.56640625 C-50.63553934 8.05177337 -44.67374623 8.60522614 -38.6875 8.6875 C-36.89989258 8.68266602 -36.89989258 8.68266602 -35.07617188 8.67773438 C-26.26724107 8.73275893 -26.26724107 8.73275893 -24 11 C-23.98828125 13.12890625 -23.98828125 13.12890625 -24.3125 15.5625 C-24.41175781 16.36816406 -24.51101562 17.17382812 -24.61328125 18.00390625 C-25 20 -25 20 -26 21 C-27.66617115 21.04063832 -29.33388095 21.042721 -31 21 C-31.33 23.64 -31.66 26.28 -32 29 C-31.36191406 29.06058594 -30.72382812 29.12117188 -30.06640625 29.18359375 C-28.82697266 29.30927734 -28.82697266 29.30927734 -27.5625 29.4375 C-26.73878906 29.51871094 -25.91507812 29.59992187 -25.06640625 29.68359375 C-23 30 -23 30 -22 31 C-22.06564064 32.50376737 -22.20421992 34.00452042 -22.375 35.5 C-22.47425781 36.39460938 -22.57351562 37.28921875 -22.67578125 38.2109375 C-22.78277344 39.13132813 -22.88976562 40.05171875 -23 41 C-23.18786219 42.70829354 -23.37539212 44.41662368 -23.5625 46.125 C-23.706875 47.40375 -23.85125 48.6825 -24 50 C-23.37738281 49.51917969 -22.75476563 49.03835937 -22.11328125 48.54296875 C-17.81286849 46.41164749 -13.92750442 46.43621376 -9.1875 46.3125 C-8.30384766 46.27833984 -7.42019531 46.24417969 -6.50976562 46.20898438 C-4.34027833 46.12689567 -2.1701611 46.06176121 0 46 C-2.97 44.35 -5.94 42.7 -9 41 C-9 40.34 -9 39.68 -9 39 C-10.65 38.67 -12.3 38.34 -14 38 C-13.67 35.69 -13.34 33.38 -13 31 C-11.35 30.67 -9.7 30.34 -8 30 C-9.0828125 29.87625 -9.0828125 29.87625 -10.1875 29.75 C-14.79072697 28.52247281 -17.21923112 26.18461486 -19.8125 22.25 C-21.72310412 17.02097821 -21.72310412 12.97902179 -19.8125 7.75 C-14.75759974 0.08049615 -8.65801009 -1.03896121 0 0 Z M-91 47 C-90.34 48.32 -89.68 49.64 -89 51 C-89.33 49.68 -89.66 48.36 -90 47 C-90.33 47 -90.66 47 -91 47 Z " fill="#094614" transform="translate(120,0)"/>
<path d="M0 0 C2.31 0 4.62 0 7 0 C8.485 10.395 8.485 10.395 10 21 C10 18.36 10 15.72 10 13 C12.75313381 9.57718499 15.80024683 6.4027182 20.26171875 5.5859375 C21.46248047 5.48152344 21.46248047 5.48152344 22.6875 5.375 C23.49574219 5.30023437 24.30398437 5.22546875 25.13671875 5.1484375 C26.05904297 5.07496094 26.05904297 5.07496094 27 5 C26.68839539 7.20845985 26.37567654 9.41676251 26.0625 11.625 C25.88847656 12.85476562 25.71445312 14.08453125 25.53515625 15.3515625 C25.06225699 18.57556184 24.54848998 21.78812176 24 25 C25.65 25 27.3 25 29 25 C29.18175781 23.73542969 29.18175781 23.73542969 29.3671875 22.4453125 C29.53476562 21.34960938 29.70234375 20.25390625 29.875 19.125 C30.03742187 18.03445312 30.19984375 16.94390625 30.3671875 15.8203125 C31 13 31 13 33 11 C35.125 11.375 35.125 11.375 37 12 C36.85851011 13.6045556 36.71164314 15.20863767 36.5625 16.8125 C36.48128906 17.70582031 36.40007813 18.59914063 36.31640625 19.51953125 C36 22 36 22 35 25 C37.64 25.33 40.28 25.66 43 26 C42.67 26.804375 42.34 27.60875 42 28.4375 C40.93940959 30.69681125 40.93940959 30.69681125 41 32 C39.948125 32.2475 38.89625 32.495 37.8125 32.75 C34.1866459 33.76700786 31.80089228 35.45373429 29 38 C29 37.01 29 36.02 29 35 C28.01 35 27.02 35 26 35 C26.66 33.68 27.32 32.36 28 31 C28.99 31 29.98 31 31 31 C31 29.68 31 28.36 31 27 C26.03088634 28.12697043 26.03088634 28.12697043 22 31 C21.29289322 32.64991582 20.62056011 34.31562256 20 36 C18.35 35.67 16.7 35.34 15 35 C14.80664062 35.71027344 14.61328125 36.42054687 14.4140625 37.15234375 C14.15367188 38.07144531 13.89328125 38.99054687 13.625 39.9375 C13.36976562 40.85402344 13.11453125 41.77054688 12.8515625 42.71484375 C12 45 12 45 10 46 C3.81964117 46.44948064 3.81964117 46.44948064 1.0625 44.9375 C-0.62414729 41.86184905 -0.35598975 39.4412342 0 36 C0.53625 35.154375 1.0725 34.30875 1.625 33.4375 C2.07875 32.633125 2.5325 31.82875 3 31 C2.15835673 27.97503122 2.15835673 27.97503122 1 25 C1.375 22.125 1.375 22.125 2 20 C-3.40787385 21.09786425 -3.40787385 21.09786425 -7 25 C-9.625 25.1875 -9.625 25.1875 -12 25 C-10.37317535 19.29676416 -7.66802013 14.31986097 -4.875 9.125 C-4.40707031 8.24585938 -3.93914063 7.36671875 -3.45703125 6.4609375 C-2.3087907 4.30505729 -1.15636097 2.15153223 0 0 Z " fill="#084611" transform="translate(15,6)"/>
<path d="M0 0 C4.38939674 1.75733478 6.54729453 4.2643536 9 8.25 C10.22780608 12.8542728 10.49037532 16.44073355 9 21 C7.25580695 23.625926 5.28098957 25.83061848 3 28 C3.928125 28.309375 4.85625 28.61875 5.8125 28.9375 C12 31 12 31 13.25 33.125 C14.33435492 37.28169385 13.93052287 41.13895427 12 45 C-2.78132118 45.738041 -2.78132118 45.738041 -9 41 C-9 40.34 -9 39.68 -9 39 C-10.65 38.67 -12.3 38.34 -14 38 C-13.67 35.69 -13.34 33.38 -13 31 C-11.35 30.67 -9.7 30.34 -8 30 C-8.721875 29.9175 -9.44375 29.835 -10.1875 29.75 C-14.79072697 28.52247281 -17.21923112 26.18461486 -19.8125 22.25 C-21.72310412 17.02097821 -21.72310412 12.97902179 -19.8125 7.75 C-14.75759974 0.08049615 -8.65801009 -1.03896121 0 0 Z " fill="#D5E03B" transform="translate(120,0)"/>
<path d="M0 0 C3 1 3 1 4.25 3 C5.30707336 7.22829344 5.26262716 10.81264327 4 15 C2.26298551 17.63198595 0.28153655 19.83009827 -2 22 C-1.071875 22.309375 -0.14375 22.61875 0.8125 22.9375 C7 25 7 25 8.25 27.125 C9.33435492 31.28169385 8.93052287 35.13895427 7 39 C-7.78132118 39.738041 -7.78132118 39.738041 -14 35 C-14 34.34 -14 33.68 -14 33 C-15.65 32.67 -17.3 32.34 -19 32 C-18.67 29.69 -18.34 27.38 -18 25 C-16.68 25 -15.36 25 -14 25 C-13.34 23.02 -12.68 21.04 -12 19 C-10.35 19 -8.7 19 -7 19 C-7.33 17.35 -7.66 15.7 -8 14 C-7.01 14 -6.02 14 -5 14 C-4.71125 13.13375 -4.4225 12.2675 -4.125 11.375 C-3.75375 10.26125 -3.3825 9.1475 -3 8 C-2.4740625 6.39125 -2.4740625 6.39125 -1.9375 4.75 C-1 2 -1 2 0 0 Z " fill="#D6E03D" transform="translate(125,6)"/>
<path d="M0 0 C0.66 0.99 1.32 1.98 2 3 C1.505 3.515625 1.01 4.03125 0.5 4.5625 C-1.52701444 7.85639847 -1.35173852 10.20122401 -1 14 C0.78657757 16.21370051 0.78657757 16.21370051 3.1640625 16.1953125 C4.38222656 16.16050781 4.38222656 16.16050781 5.625 16.125 C6.44226562 16.10695313 7.25953125 16.08890625 8.1015625 16.0703125 C9.04128906 16.03550781 9.04128906 16.03550781 10 16 C9.95875 15.319375 9.9175 14.63875 9.875 13.9375 C10.02549965 10.40075832 10.94375853 7.36676967 12 4 C12.33 4.66 12.66 5.32 13 6 C13.66 6 14.32 6 15 6 C15 7.65 15 9.3 15 11 C15.66 11 16.32 11 17 11 C16.85851011 12.6045556 16.71164314 14.20863767 16.5625 15.8125 C16.48128906 16.70582031 16.40007813 17.59914063 16.31640625 18.51953125 C16 21 16 21 15 24 C16.98 24 18.96 24 21 24 C21.33 19.71 21.66 15.42 22 11 C23.32 11 24.64 11 26 11 C26.33 14.3 26.66 17.6 27 21 C32.32170494 21.29562367 32.32170494 21.29562367 37 19 C37 19.99 37 20.98 37 22 C40.43230448 21.73606499 40.43230448 21.73606499 44 21 C44.66 20.01 45.32 19.02 46 18 C46.5259375 18.7425 46.5259375 18.7425 47.0625 19.5 C49.94374289 21.73063966 52.47009026 21.19980621 56 21 C56.495 19.515 56.495 19.515 57 18 C56.195625 18.020625 55.39125 18.04125 54.5625 18.0625 C52 18 52 18 51 17 C50.8125 13.5625 50.8125 13.5625 51 10 C53.49505962 7.50494038 54.67328888 7.64051624 58.125 7.375 C59.03507812 7.30023438 59.94515625 7.22546875 60.8828125 7.1484375 C61.93082031 7.07496094 61.93082031 7.07496094 63 7 C62.85795259 8.58367747 62.71119847 10.16693318 62.5625 11.75 C62.44068359 13.07257812 62.44068359 13.07257812 62.31640625 14.421875 C62.03761535 16.69350452 61.61209423 18.79851823 61 21 C62.65 21 64.3 21 66 21 C66.495 22.98 66.495 22.98 67 25 C61.50074579 25.04940929 56.00162058 25.08572395 50.50219727 25.10986328 C48.63108062 25.11992567 46.75997972 25.13357691 44.88891602 25.15087891 C42.20064409 25.17511684 39.51257994 25.18648063 36.82421875 25.1953125 C35.98662521 25.20563507 35.14903168 25.21595764 34.28605652 25.22659302 C28.34161512 25.22774341 28.34161512 25.22774341 25 23 C24.690625 23.66 24.38125 24.32 24.0625 25 C21.56615423 27.42069893 20.75304553 27.2963885 17.375 27.3125 C13.1836394 27.1836394 13.1836394 27.1836394 12 26 C11.85884839 23.32941149 11.95752893 20.67567762 12 18 C11.01 18.66 10.02 19.32 9 20 C4.33511124 20.82989594 0.96705735 20.61181179 -3.0625 18.0625 C-5.31174035 14.50724912 -5.71547338 12.36593606 -5.5078125 8.2265625 C-4.65965939 4.50773732 -2.69831685 2.63085893 0 0 Z M12 12 C12.66 13.32 13.32 14.64 14 16 C13.67 14.68 13.34 13.36 13 12 C12.67 12 12.34 12 12 12 Z " fill="#074511" transform="translate(17,35)"/>
<path d="M0 0 C2.14576637 -0.02685938 4.29162645 -0.04633088 6.4375 -0.0625 C7.63246094 -0.07410156 8.82742187 -0.08570312 10.05859375 -0.09765625 C13 0 13 0 14 1 C14.04080783 2.99958364 14.04254356 5.00045254 14 7 C14.7425 7.12375 15.485 7.2475 16.25 7.375 C19 8 19 8 20.875 9.25 C21.926875 9.62125 21.926875 9.62125 23 10 C23.99386719 9.51402344 24.98773438 9.02804687 26.01171875 8.52734375 C30.67250302 6.4172796 34.93958863 6.88302168 39.9375 7.3125 C41.24944336 7.4043457 41.24944336 7.4043457 42.58789062 7.49804688 C44.72641024 7.64996357 46.86342338 7.8228413 49 8 C49 8.66 49 9.32 49 10 C47.54263913 10.19491452 46.08405407 10.38069358 44.625 10.5625 C43.40683594 10.71912109 43.40683594 10.71912109 42.1640625 10.87890625 C40 11 40 11 38 10 C31.99097738 9.93990977 27.69721481 11.08565433 23 15 C21.16699091 17.10575643 21.16699091 17.10575643 20 19 C19.34 16.69 18.68 14.38 18 12 C13.80410573 10.83447381 13.17908064 10.91045968 9 13 C9.66 9.7 10.32 6.4 11 3 C8.03 3 5.06 3 2 3 C2 3.99 2 4.98 2 6 C2.66 6 3.32 6 4 6 C4 6.99 4 7.98 4 9 C3.26394531 9.15855469 2.52789062 9.31710937 1.76953125 9.48046875 C-6.32790028 11.29693967 -6.32790028 11.29693967 -12 17 C-12.23334443 19.36677924 -12.19462192 21.54625577 -11.98046875 23.9140625 C-12 26 -12 26 -14 29 C-14.33931227 26.33397504 -14.67157176 23.66736986 -15 21 C-15.09539063 20.25621094 -15.19078125 19.51242188 -15.2890625 18.74609375 C-15.89227676 13.79111949 -16.09075591 8.99157504 -16 4 C-19.05272994 3.74977623 -20.3160205 3.66501542 -23 5 C-25.72747439 8.7364913 -27.53714409 12.8588269 -29.4375 17.0625 C-29.97826172 18.20267578 -30.51902344 19.34285156 -31.07617188 20.51757812 C-32.40817649 23.33482683 -33.71451926 26.16129604 -35 29 C-32.54578022 28.65721873 -32.54578022 28.65721873 -30 28 C-29.2884375 26.9790625 -29.2884375 26.9790625 -28.5625 25.9375 C-28.046875 25.298125 -27.53125 24.65875 -27 24 C-23.8125 23.75 -23.8125 23.75 -21 24 C-21 25.65 -21 27.3 -21 29 C-21.33 27.68 -21.66 26.36 -22 25 C-22.99 25 -23.98 25 -25 25 C-25.309375 25.969375 -25.61875 26.93875 -25.9375 27.9375 C-27 31 -27 31 -28 32 C-29.49738124 32.0979057 -30.99942892 32.12974864 -32.5 32.125 C-33.3146875 32.12757812 -34.129375 32.13015625 -34.96875 32.1328125 C-37 32 -37 32 -38 31 C-37.77294961 24.09388392 -34.63271603 18.66159386 -31.5 12.625 C-30.98824219 11.61566406 -30.47648437 10.60632813 -29.94921875 9.56640625 C-26.18297133 2.18297133 -26.18297133 2.18297133 -25 1 C-23.35769636 0.8754514 -21.70947724 0.82431476 -20.0625 0.8125 C-19.16660156 0.79832031 -18.27070313 0.78414063 -17.34765625 0.76953125 C-15 1 -15 1 -13 3 C-12.59952556 5.32275177 -12.2602896 7.65739357 -12 10 C-11.18595703 9.67515625 -11.18595703 9.67515625 -10.35546875 9.34375 C-9.64003906 9.0653125 -8.92460937 8.786875 -8.1875 8.5 C-7.47980469 8.2215625 -6.77210937 7.943125 -6.04296875 7.65625 C-4 7 -4 7 -1 7 C-0.67 4.69 -0.34 2.38 0 0 Z " fill="#124B1C" transform="translate(38,2)"/>
<path d="M0 0 C2.31 0 4.62 0 7 0 C7.33931227 2.66602496 7.67157176 5.33263014 8 8 C8.09539063 8.74378906 8.19078125 9.48757813 8.2890625 10.25390625 C8.89227676 15.20888051 9.09075591 20.00842496 9 25 C7.35 25 5.7 25 4 25 C3.67 23.02 3.34 21.04 3 19 C0.69 18.67 -1.62 18.34 -4 18 C-4.4640625 19.4540625 -4.4640625 19.4540625 -4.9375 20.9375 C-6 24 -6 24 -7 25 C-8.66617115 25.04063832 -10.33388095 25.042721 -12 25 C-10.37317535 19.29676416 -7.66802013 14.31986097 -4.875 9.125 C-4.40707031 8.24585938 -3.93914063 7.36671875 -3.45703125 6.4609375 C-2.3087907 4.30505729 -1.15636097 2.15153223 0 0 Z " fill="#F3F6F4" transform="translate(15,6)"/>
<path d="M0 0 C3.09244792 0.03255208 6.18489583 0.06510417 9.27734375 0.09765625 C8.61734375 4.71765625 7.95734375 9.33765625 7.27734375 14.09765625 C7.93734375 14.09765625 8.59734375 14.09765625 9.27734375 14.09765625 C9.27734375 15.41765625 9.27734375 16.73765625 9.27734375 18.09765625 C6.96734375 18.09765625 4.65734375 18.09765625 2.27734375 18.09765625 C1.94734375 17.43765625 1.61734375 16.77765625 1.27734375 16.09765625 C0.61734375 16.75765625 -0.04265625 17.41765625 -0.72265625 18.09765625 C-3.72265625 18.34765625 -3.72265625 18.34765625 -6.72265625 18.09765625 C-9.19301337 15.62729913 -9.07307906 14.70165555 -9.16015625 11.28515625 C-9.1014359 7.22170817 -8.92980188 6.35791614 -6.28515625 3.03515625 C-5.43953125 2.39578125 -4.59390625 1.75640625 -3.72265625 1.09765625 C-2.72265625 0.09765625 -2.72265625 0.09765625 0 0 Z " fill="#F2F6F3" transform="translate(67.72265625,12.90234375)"/>
<path d="M0 0 C2.97 0 5.94 0 9 0 C8.67 2.97 8.34 5.94 8 9 C8.99 8.34 9.98 7.68 11 7 C14.32240324 7.3241369 15.60776303 7.60776303 18 10 C18.13367039 15.46934662 16.64915223 20.83265634 15 26 C13.35 26 11.7 26 10 26 C10.33 21.71 10.66 17.42 11 13 C9.68 13.33 8.36 13.66 7 14 C6.01 17.96 5.02 21.92 4 26 C2.35 26 0.7 26 -1 26 C-0.41993763 18.24548194 0.62440584 10.65257723 2 3 C1.34 3 0.68 3 0 3 C0 2.01 0 1.02 0 0 Z " fill="#F1F4F2" transform="translate(40,5)"/>
<path d="M0 0 C0 1.32 0 2.64 0 4 C-0.639375 4.28875 -1.27875 4.5775 -1.9375 4.875 C-4.15206079 5.82823451 -4.15206079 5.82823451 -5 8 C-4.01 8 -3.02 8 -2 8 C-1.67 8.66 -1.34 9.32 -1 10 C0.32 9.01 1.64 8.02 3 7 C3 7.99 3 8.98 3 10 C3.66 9.34 4.32 8.68 5 8 C7.125 8.375 7.125 8.375 9 9 C8.195625 9.350625 7.39125 9.70125 6.5625 10.0625 C3.6132233 11.85667284 3.6132233 11.85667284 3.1875 15.6875 C3.0946875 17.3271875 3.0946875 17.3271875 3 19 C4.65 19 6.3 19 8 19 C7.01 20.65 6.02 22.3 5 24 C2.6568787 23.74438677 0.32156597 23.40729228 -2 23 C-3.60725635 19.78548731 -3.05748185 16.56387464 -3 13 C-4.32 13 -5.64 13 -7 13 C-7.33 17.29 -7.66 21.58 -8 26 C-9.98 26 -11.96 26 -14 26 C-13.34 21.71 -12.68 17.42 -12 13 C-12.66 13 -13.32 13 -14 13 C-14 11.68 -14 10.36 -14 9 C-13.01 8.67 -12.02 8.34 -11 8 C-10.30341637 6.34561387 -9.63903117 4.67745682 -9 3 C-6.52786652 -0.58459355 -4.15309777 -0.27687318 0 0 Z " fill="#C9D63A" transform="translate(46,33)"/>
<path d="M0 0 C1.32 0.33 2.64 0.66 4 1 C4.66 3.31 5.32 5.62 6 8 C6.66 8 7.32 8 8 8 C7.67 6.68 7.34 5.36 7 4 C7.99 4.99 8.98 5.98 10 7 C10.66 6.34 11.32 5.68 12 5 C14 5 14 5 16 6 C17.99775222 9.81389061 18.08082528 11.64205947 17.125 15.875 C16.75375 16.90625 16.3825 17.9375 16 19 C12.7 19 9.4 19 6 19 C6 17.35 6 15.7 6 14 C5.113125 13.731875 4.22625 13.46375 3.3125 13.1875 C0.2090334 12.0749365 -2.31110685 10.89804222 -5 9 C-5 8.34 -5 7.68 -5 7 C-2.23723823 7.52268466 0.3260876 8.10869587 3 9 C2.01 6.03 1.02 3.06 0 0 Z " fill="#ECEDEE" transform="translate(114,26)"/>
<path d="M0 0 C1.32 0.33 2.64 0.66 4 1 C3.85851011 2.6045556 3.71164314 4.20863767 3.5625 5.8125 C3.48128906 6.70582031 3.40007813 7.59914063 3.31640625 8.51953125 C3 11 3 11 2 14 C4.64 14.33 7.28 14.66 10 15 C9.67 15.804375 9.34 16.60875 9 17.4375 C7.93940959 19.69681125 7.93940959 19.69681125 8 21 C6.948125 21.2475 5.89625 21.495 4.8125 21.75 C1.1866459 22.76700786 -1.19910772 24.45373429 -4 27 C-4 26.01 -4 25.02 -4 24 C-4.99 24 -5.98 24 -7 24 C-6.34 22.68 -5.68 21.36 -5 20 C-4.01 20 -3.02 20 -2 20 C-2 18.68 -2 17.36 -2 16 C-2.66 16 -3.32 16 -4 16 C-3.40546697 4.29384966 -3.40546697 4.29384966 0 0 Z " fill="#0A4713" transform="translate(48,17)"/>
<path d="M0 0 C3.96 0 7.92 0 12 0 C11.125 10.625 11.125 10.625 10 14 C10.99 14 11.98 14 13 14 C12.67 15.32 12.34 16.64 12 18 C9.69 18 7.38 18 5 18 C4.7525 17.360625 4.505 16.72125 4.25 16.0625 C3.18437567 13.81258459 3.18437567 13.81258459 0.875 13.25 C0.25625 13.1675 -0.3625 13.085 -1 13 C-0.25 6.375 -0.25 6.375 2 3 C0.02 3.99 0.02 3.99 -2 5 C-1.34 3.35 -0.68 1.7 0 0 Z " fill="#DCE43E" transform="translate(49,39)"/>
<path d="M0 0 C0.66 0 1.32 0 2 0 C2.66 0.66 3.32 1.32 4 2 C5.98821313 2.39764263 7.98944339 2.73775349 10 3 C9.34 4.98 8.68 6.96 8 9 C3.38 9 -1.24 9 -6 9 C-6.33 7.68 -6.66 6.36 -7 5 C-7.99 6.485 -7.99 6.485 -9 8 C-9 6.68 -9 5.36 -9 4 C-9.66 4 -10.32 4 -11 4 C-11 5.65 -11 7.3 -11 9 C-16.28 9 -21.56 9 -27 9 C-27 6 -27 6 -25.08203125 3.828125 C-20.8518769 1.31898402 -17.50145639 1.55242641 -12.6875 1.75 C-11.43356445 1.77707031 -11.43356445 1.77707031 -10.15429688 1.8046875 C-8.10236772 1.85158874 -6.05103244 1.92332589 -4 2 C-3.67 3.32 -3.34 4.64 -3 6 C-2.34 6 -1.68 6 -1 6 C-0.67 4.02 -0.34 2.04 0 0 Z " fill="#BAC9BD" transform="translate(123,48)"/>
<path d="M0 0 C0 0.66 0 1.32 0 2 C-0.99 2.495 -0.99 2.495 -2 3 C-1.34 3.66 -0.68 4.32 0 5 C0.125 8.125 0.125 8.125 0 11 C-3.13498292 12.85776765 -5.37471432 13.20140476 -9 13 C-8.67 13.66 -8.34 14.32 -8 15 C-6.02 15 -4.04 15 -2 15 C-2.33 16.32 -2.66 17.64 -3 19 C-9.34507042 19.35915493 -9.34507042 19.35915493 -11.9375 17.9375 C-13.64483445 14.82412541 -13.42008548 12.48070825 -13 9 C-11.1875 6.0625 -11.1875 6.0625 -9 4 C-8.01 4 -7.02 4 -6 4 C-6 3.01 -6 2.02 -6 1 C-4 0 -4 0 0 0 Z " fill="#A5B932" transform="translate(28,33)"/>
<path d="M0 0 C-0.33 1.65 -0.66 3.3 -1 5 C-3.31 5.66 -5.62 6.32 -8 7 C-8 9.31 -8 11.62 -8 14 C-6.35 14.33 -4.7 14.66 -3 15 C-3.33 16.32 -3.66 17.64 -4 19 C-10.22222222 19.47863248 -10.22222222 19.47863248 -13.4375 17.5 C-15.60280891 14.03550575 -15.77941765 10.92047077 -15 7 C-11.049419 0.50975979 -7.33025404 -0.28193285 0 0 Z " fill="#DAE33E" transform="translate(77,38)"/>
<path d="M0 0 C1.98 0 3.96 0 6 0 C5.01 6.6 4.02 13.2 3 20 C3.66 20 4.32 20 5 20 C5 21.32 5 22.64 5 24 C2.36 24 -0.28 24 -3 24 C-4.09916562 20.70250315 -3.89023727 19.45118637 -3.22265625 16.11328125 C-2.94711914 14.7065918 -2.94711914 14.7065918 -2.66601562 13.27148438 C-2.46685547 12.29501953 -2.26769531 11.31855469 -2.0625 10.3125 C-1.86720703 9.32443359 -1.67191406 8.33636719 -1.47070312 7.31835938 C-0.98724224 4.87747148 -0.49676034 2.43820991 0 0 Z " fill="#D4DE3C" transform="translate(89,33)"/>
<path d="M0 0 C1.23556641 0.01740234 1.23556641 0.01740234 2.49609375 0.03515625 C3.32238281 0.04417969 4.14867187 0.05320312 5 0.0625 C5.63808594 0.07410156 6.27617188 0.08570313 6.93359375 0.09765625 C6.60359375 1.41765625 6.27359375 2.73765625 5.93359375 4.09765625 C3.62359375 4.75765625 1.31359375 5.41765625 -1.06640625 6.09765625 C-1.39640625 8.07765625 -1.72640625 10.05765625 -2.06640625 12.09765625 C-0.08640625 12.75765625 1.89359375 13.41765625 3.93359375 14.09765625 C3.93359375 15.41765625 3.93359375 16.73765625 3.93359375 18.09765625 C-4.2202524 18.71304087 -4.2202524 18.71304087 -7.12890625 16.59765625 C-8.46064058 13.04636471 -8.87962393 9.79010408 -8.06640625 6.09765625 C-5.62890625 3.16015625 -5.62890625 3.16015625 -3.06640625 1.09765625 C-2.06640625 0.09765625 -2.06640625 0.09765625 0 0 Z " fill="#F4F7F5" transform="translate(33.06640625,12.90234375)"/>
<path d="M0 0 C0 1.98 0 3.96 0 6 C-1.3921875 6.1546875 -1.3921875 6.1546875 -2.8125 6.3125 C-6.18202658 7.66226191 -6.18202658 7.66226191 -7.06640625 10.58203125 C-7.80909935 13.37699708 -8.45850903 16.15954736 -9 19 C-10.65 19 -12.3 19 -14 19 C-13.67 14.38 -13.34 9.76 -13 5 C-13.66 4.67 -14.32 4.34 -15 4 C-15 3.01 -15 2.02 -15 1 C-12.36 1 -9.72 1 -7 1 C-6.67 1.66 -6.34 2.32 -6 3 C-5.3503125 2.2575 -5.3503125 2.2575 -4.6875 1.5 C-3 0 -3 0 0 0 Z " fill="#EBF0ED" transform="translate(93,12)"/>
<path d="M0 0 C1 3 1 3 -0.546875 6.4765625 C-1.27322949 7.86360475 -2.00807027 9.24622615 -2.75 10.625 C-5.71994514 16.32338954 -8.22809405 21.79832919 -10 28 C-7.59855733 27.8042208 -7.59855733 27.8042208 -5 27 C-4.2884375 25.9790625 -4.2884375 25.9790625 -3.5625 24.9375 C-3.046875 24.298125 -2.53125 23.65875 -2 23 C1.1875 22.75 1.1875 22.75 4 23 C4 24.65 4 26.3 4 28 C3.67 26.68 3.34 25.36 3 24 C2.01 24 1.02 24 0 24 C-0.309375 24.969375 -0.61875 25.93875 -0.9375 26.9375 C-2 30 -2 30 -3 31 C-4.49738124 31.0979057 -5.99942892 31.12974864 -7.5 31.125 C-8.3146875 31.12757812 -9.129375 31.13015625 -9.96875 31.1328125 C-12 31 -12 31 -13 30 C-12.77294961 23.09388392 -9.63271603 17.66159386 -6.5 11.625 C-5.98824219 10.61566406 -5.47648438 9.60632813 -4.94921875 8.56640625 C-1.18297133 1.18297133 -1.18297133 1.18297133 0 0 Z " fill="#01450F" transform="translate(13,3)"/>
<path d="M0 0 C-0.31160461 2.20845985 -0.62432346 4.41676251 -0.9375 6.625 C-1.11152344 7.85476562 -1.28554688 9.08453125 -1.46484375 10.3515625 C-1.93774301 13.57556184 -2.45151002 16.78812176 -3 20 C-3.66 19.67 -4.32 19.34 -5 19 C-5 18.01 -5 17.02 -5 16 C-5.78375 16.04125 -6.5675 16.0825 -7.375 16.125 C-10 16 -10 16 -12 14 C-11.54545455 8.54545455 -11.54545455 8.54545455 -9 6 C-5.875 5.875 -5.875 5.875 -3 6 C-2.67 4.68 -2.34 3.36 -2 2 C-4.31 2 -6.62 2 -9 2 C-9 1.67 -9 1.34 -9 1 C-2.25 0 -2.25 0 0 0 Z " fill="#124C1D" transform="translate(42,11)"/>
<path d="M0 0 C-0.11487748 1.58409994 -0.24234508 3.16728963 -0.375 4.75 C-0.44460937 5.63171875 -0.51421875 6.5134375 -0.5859375 7.421875 C-0.99850055 9.99066382 -1.71160957 11.75841015 -3 14 C-3.66 14 -4.32 14 -5 14 C-5 12.68 -5 11.36 -5 10 C-7.31 10 -9.62 10 -12 10 C-12.125 6.625 -12.125 6.625 -12 3 C-8.6463584 -0.3536416 -4.57608788 0 0 0 Z " fill="#044210" transform="translate(80,42)"/>
<path d="M0 0 C1.32 0.33 2.64 0.66 4 1 C3.01 1 2.02 1 1 1 C1.30035156 1.62648438 1.60070312 2.25296875 1.91015625 2.8984375 C2.48056641 4.12433594 2.48056641 4.12433594 3.0625 5.375 C3.44535156 6.18710937 3.82820313 6.99921875 4.22265625 7.8359375 C4.60744141 8.90714844 4.60744141 8.90714844 5 10 C4.67 10.66 4.34 11.32 4 12 C1.36 10.68 -1.28 9.36 -4 8 C-4 8.66 -4 9.32 -4 10 C-3.29875 10.268125 -2.5975 10.53625 -1.875 10.8125 C1.1649824 12.0681449 4.0727774 13.50235123 7 15 C7 16.65 7 18.3 7 20 C3.9168649 18.80100302 0.93720508 17.52299523 -2 16 C-2 15.34 -2 14.68 -2 14 C-3.65 13.67 -5.3 13.34 -7 13 C-6.67 10.69 -6.34 8.38 -6 6 C-4.68 6 -3.36 6 -2 6 C-1.34 4.02 -0.68 2.04 0 0 Z " fill="#2F2F2F" transform="translate(113,25)"/>
<path d="M0 0 C0.99 0 1.98 0 3 0 C3 3.27275026 2.70074844 5.846632 2 9 C0.02 9 -1.96 9 -4 9 C-4 9.66 -4 10.32 -4 11 C-0.7 10.67 2.6 10.34 6 10 C6.33 11.65 6.66 13.3 7 15 C5.04098546 14.88617347 3.0827662 14.75858875 1.125 14.625 C0.03445312 14.55539063 -1.05609375 14.48578125 -2.1796875 14.4140625 C-5 14 -5 14 -7 12 C-7.55408971 6.79155673 -7.55408971 6.79155673 -5.6875 4.125 C-4 3 -4 3 -1 3 C-0.67 2.01 -0.34 1.02 0 0 Z " fill="#F2F5C4" transform="translate(111,10)"/>
<path d="M0 0 C0.33 1.32 0.66 2.64 1 4 C1.7425 4.12375 2.485 4.2475 3.25 4.375 C6 5 6 5 7.875 6.25 C8.57625 6.4975 9.2775 6.745 10 7 C10.99386719 6.51402344 11.98773438 6.02804688 13.01171875 5.52734375 C17.67250302 3.4172796 21.93958863 3.88302168 26.9375 4.3125 C27.81212891 4.37373047 28.68675781 4.43496094 29.58789062 4.49804688 C31.72641024 4.64996357 33.86342338 4.8228413 36 5 C36 5.66 36 6.32 36 7 C34.54263913 7.19491452 33.08405407 7.38069358 31.625 7.5625 C30.81289062 7.66691406 30.00078125 7.77132813 29.1640625 7.87890625 C27 8 27 8 25 7 C18.99097738 6.93990977 14.69721481 8.08565433 10 12 C8.16699091 14.10575643 8.16699091 14.10575643 7 16 C6.67 13.36 6.34 10.72 6 8 C3.69 7.34 1.38 6.68 -1 6 C-0.67 4.02 -0.34 2.04 0 0 Z " fill="#01400D" transform="translate(51,5)"/>
<path d="M0 0 C2.64 0 5.28 0 8 0 C7.4618629 5.69051363 6.8599867 11.34865884 6 17 C4.02 17 2.04 17 0 17 C0.14204741 15.41632253 0.28880153 13.83306682 0.4375 12.25 C0.51871094 11.36828125 0.59992188 10.4865625 0.68359375 9.578125 C0.96238465 7.30649548 1.38790577 5.20148177 2 3 C1.34 3 0.68 3 0 3 C0 2.01 0 1.02 0 0 Z " fill="#DBE33E" transform="translate(78,39)"/>
<path d="M0 0 C0.165 0.639375 0.33 1.27875 0.5 1.9375 C1.781786 4.16119241 1.781786 4.16119241 3.9140625 4.48828125 C5.93575155 4.7275978 7.96841939 4.86893028 10 5 C10.33 3.68 10.66 2.36 11 1 C11.99 1.33 12.98 1.66 14 2 C13.34 2 12.68 2 12 2 C12 2.99 12 3.98 12 5 C13.546875 4.7525 13.546875 4.7525 15.125 4.5 C18.48244326 4.06678152 21.62336157 3.91764297 25 4 C25.33 4.66 25.66 5.32 26 6 C25.34 6 24.68 6 24 6 C24 6.66 24 7.32 24 8 C20.31256766 8.05850924 16.6252563 8.09376673 12.9375 8.125 C11.89916016 8.14175781 10.86082031 8.15851562 9.79101562 8.17578125 C4.11288716 8.21183286 -0.64391054 7.92971166 -6 6 C-6 5.67 -6 5.34 -6 5 C-4.35 4.67 -2.7 4.34 -1 4 C-0.67 2.68 -0.34 1.36 0 0 Z " fill="#023E0E" transform="translate(84,52)"/>
<path d="M0 0 C0.33 0.99 0.66 1.98 1 3 C1.66 2.34 2.32 1.68 3 1 C5.125 1.375 5.125 1.375 7 2 C5.7934375 2.5259375 5.7934375 2.5259375 4.5625 3.0625 C1.6132233 4.85667284 1.6132233 4.85667284 1.1875 8.6875 C1.125625 9.780625 1.06375 10.87375 1 12 C2.65 12 4.3 12 6 12 C4.515 14.475 4.515 14.475 3 17 C0.6568787 16.74438677 -1.67843403 16.40729228 -4 16 C-5.5547669 12.89046621 -5.28644437 10.43733239 -5 7 C-3.50254139 4.39152371 -2.12971098 2.12971098 0 0 Z " fill="#E2E93F" transform="translate(48,40)"/>
<path d="M0 0 C1.51400391 0.01740234 1.51400391 0.01740234 3.05859375 0.03515625 C4.07050781 0.04417969 5.08242187 0.05320312 6.125 0.0625 C7.29869141 0.07990234 7.29869141 0.07990234 8.49609375 0.09765625 C8.49609375 0.42765625 8.49609375 0.75765625 8.49609375 1.09765625 C6.51609375 1.09765625 4.53609375 1.09765625 2.49609375 1.09765625 C2.44710937 1.77570312 2.398125 2.45375 2.34765625 3.15234375 C1.83045162 9.59064966 0.90428254 15.79498602 -0.50390625 22.09765625 C-1.16390625 21.43765625 -1.82390625 20.77765625 -2.50390625 20.09765625 C-2.26171875 17.05859375 -2.26171875 17.05859375 -1.62890625 13.47265625 C-1.42523438 12.28414062 -1.2215625 11.095625 -1.01171875 9.87109375 C-0.84414062 8.95585938 -0.6765625 8.040625 -0.50390625 7.09765625 C-3.14390625 7.09765625 -5.78390625 7.09765625 -8.50390625 7.09765625 C-7.18390625 6.76765625 -5.86390625 6.43765625 -4.50390625 6.09765625 C-4.35953125 5.29328125 -4.21515625 4.48890625 -4.06640625 3.66015625 C-3.29113376 0.12835935 -3.29113376 0.12835935 0 0 Z " fill="#33671B" transform="translate(86.50390625,31.90234375)"/>
<path d="M0 0 C0.99 0.66 1.98 1.32 3 2 C3.33 3.65 3.66 5.3 4 7 C-1.28 7 -6.56 7 -12 7 C-12 4 -12 4 -9.9375 1.8125 C-6.3107192 -0.42530092 -4.19478364 -0.46608707 0 0 Z " fill="#8DA391" transform="translate(108,50)"/>
<path d="M0 0 C2.4375 0.8125 2.4375 0.8125 5 2 C6 5 6 5 5.00390625 7.48046875 C4.52824219 8.37378906 4.05257812 9.26710938 3.5625 10.1875 C3.08941406 11.08855469 2.61632812 11.98960938 2.12890625 12.91796875 C1.75636719 13.60503906 1.38382812 14.29210938 1 15 C-0.32 14.67 -1.64 14.34 -3 14 C-2.48594831 9.03083364 -1.76615118 4.70973649 0 0 Z " fill="#FCFDF4" transform="translate(119,5)"/>
<path d="M0 0 C0.66 0 1.32 0 2 0 C2.33 0.66 2.66 1.32 3 2 C4.99653593 2.26184078 6.99396109 2.51947704 8.99609375 2.734375 C11.43442347 3.0575844 13.03772766 3.49055974 15 5 C17.48917645 9.14862742 16.95962283 12.37636275 16 17 C15.67 17.66 15.34 18.32 15 19 C14.34 19 13.68 19 13 19 C13.08378906 18.39671875 13.16757813 17.7934375 13.25390625 17.171875 C13.40666016 15.97304688 13.40666016 15.97304688 13.5625 14.75 C13.66691406 13.96109375 13.77132812 13.1721875 13.87890625 12.359375 C14.00027349 9.99467126 13.69633257 8.2488963 13 6 C12.34 6 11.68 6 11 6 C10.67 6.66 10.34 7.32 10 8 C9.67 7.34 9.34 6.68 9 6 C8.34 6.66 7.68 7.32 7 8 C6.34 7.34 5.68 6.68 5 6 C5 6.66 5 7.32 5 8 C4.34 8 3.68 8 3 8 C2.01 5.36 1.02 2.72 0 0 Z " fill="#252525" transform="translate(117,26)"/>
<path d="M0 0 C0 0.66 0 1.32 0 2 C-0.99 2.495 -0.99 2.495 -2 3 C-1.34 3.66 -0.68 4.32 0 5 C0.1875 8.0625 0.1875 8.0625 0 11 C-1 12 -1 12 -2.84765625 12.09765625 C-4.8984375 12.06510417 -6.94921875 12.03255208 -9 12 C-8 10 -8 10 -5 9 C-4.67 8.34 -4.34 7.68 -4 7 C-5.65 6.67 -7.3 6.34 -9 6 C-9 5.34 -9 4.68 -9 4 C-8.01 4 -7.02 4 -6 4 C-6 3.01 -6 2.02 -6 1 C-4 0 -4 0 0 0 Z " fill="#DCE53E" transform="translate(28,33)"/>
<path d="M0 0 C1.66666667 0 3.33333333 0 5 0 C5 1.65 5 3.3 5 5 C7.97 5.495 7.97 5.495 11 6 C10.67 6.66 10.34 7.32 10 8 C5.71 8 1.42 8 -3 8 C-3.33 7.34 -3.66 6.68 -4 6 C-2.68 5.67 -1.36 5.34 0 5 C0 3.35 0 1.7 0 0 Z " fill="#104A1D" transform="translate(112,52)"/>
<path d="M0 0 C0.32613618 4.67461851 -0.29417212 7.16674383 -3 11 C-4.32 10.67 -5.64 10.34 -7 10 C-6.39169139 3.55192878 -6.39169139 3.55192878 -4.625 1.0625 C-3 0 -3 0 0 0 Z " fill="#235014" transform="translate(55,42)"/>
<path d="M0 0 C0 2.31 0 4.62 0 7 C1.32 7 2.64 7 4 7 C3.67 8.32 3.34 9.64 3 11 C0.69 11 -1.62 11 -4 11 C-4.75 7.75 -4.75 7.75 -5 4 C-1.92307692 0 -1.92307692 0 0 0 Z " fill="#CAD83A" transform="translate(58,46)"/>
<path d="M0 0 C2.33294775 -0.04241723 4.66702567 -0.04092937 7 0 C8 1 8 1 8.0625 4.5625 C8.041875 5.696875 8.02125 6.83125 8 8 C9.65 8.33 11.3 8.66 13 9 C12.01 9.495 12.01 9.495 11 10 C11 10.99 11 11.98 11 13 C9.68 13 8.36 13 7 13 C5.37049588 8.87831311 4.73735399 6.29299643 6 2 C4.02 2.33 2.04 2.66 0 3 C0 2.01 0 1.02 0 0 Z " fill="#174D1F" transform="translate(11,24)"/>
<path d="M0 0 C0.99 0 1.98 0 3 0 C3 3.27275026 2.70074844 5.846632 2 9 C1.071875 8.835 0.14375 8.67 -0.8125 8.5 C-3.95621353 7.92251612 -3.95621353 7.92251612 -7 8 C-6.25 6.0625 -6.25 6.0625 -5 4 C-3.67405895 3.63837971 -2.34061543 3.30271961 -1 3 C-0.67 2.01 -0.34 1.02 0 0 Z " fill="#FBFCED" transform="translate(111,10)"/>
<path d="M0 0 C-0.61538462 6.52307692 -0.61538462 6.52307692 -2.5625 8.9375 C-3.036875 9.288125 -3.51125 9.63875 -4 10 C-4.99 9.67 -5.98 9.34 -7 9 C-7.36363636 3.54545455 -7.36363636 3.54545455 -5.75 1.125 C-4 0 -4 0 0 0 Z " fill="#0C4214" transform="translate(71,17)"/>
<path d="M0 0 C0.6875 1.75 0.6875 1.75 1 4 C-0.4375 6.25 -0.4375 6.25 -2 8 C-2 6.02 -2 4.04 -2 2 C-2.78375 2.474375 -3.5675 2.94875 -4.375 3.4375 C-5.88948678 4.33898023 -7.4235897 5.21179485 -9 6 C-9 5.01 -9 4.02 -9 3 C-11.31 3 -13.62 3 -16 3 C-16 2.67 -16 2.34 -16 2 C-13.36 2 -10.72 2 -8 2 C-8 1.34 -8 0.68 -8 0 C-4.71023192 -1.09658936 -3.28696233 -0.79953138 0 0 Z " fill="#134E1F" transform="translate(95,10)"/>
<path d="M0 0 C0 3.21812786 -0.05758039 4.4664092 -2 7 C-5.4118321 7.74439973 -8.51394686 8 -12 8 C-12 7.34 -12 6.68 -12 6 C-12.99 5.67 -13.98 5.34 -15 5 C-10.98195309 4.15901344 -7.98196457 3.94595055 -4 5 C-4 3.68 -4 2.36 -4 1 C-2.68 0.67 -1.36 0.34 0 0 Z " fill="#003F0D" transform="translate(135,52)"/>
<path d="M0 0 C1.98 0 3.96 0 6 0 C6 1.32 6 2.64 6 4 C6.99 3.67 7.98 3.34 9 3 C11.6875 3.4375 11.6875 3.4375 14 4 C14.33 5.32 14.66 6.64 15 8 C11.04 8 7.08 8 3 8 C3.66 5.69 4.32 3.38 5 1 C3.35 1 1.7 1 0 1 C0 0.67 0 0.34 0 0 Z " fill="#29651A" transform="translate(69,52)"/>
<path d="M0 0 C1.051875 0.99 1.051875 0.99 2.125 2 C5.43460229 4.30233203 7.06225823 4.36630156 11 4 C10.67 5.32 10.34 6.64 10 8 C3.59181818 8.36272727 3.59181818 8.36272727 1.0625 6.8125 C-0.32851983 4.43958382 -0.21917317 2.70313576 0 0 Z " fill="#E3E940" transform="translate(15,44)"/>
<path d="M0 0 C0.99 0 1.98 0 3 0 C3 3.3 3 6.6 3 10 C1.35 10 -0.3 10 -2 10 C-1.85950482 8.52031676 -1.71245174 7.04125484 -1.5625 5.5625 C-1.48128906 4.73878906 -1.40007813 3.91507813 -1.31640625 3.06640625 C-1 1 -1 1 0 0 Z " fill="#DAE23E" transform="translate(34,49)"/>
<path d="M0 0 C2.64 0 5.28 0 8 0 C8.33 1.65 8.66 3.3 9 5 C7.68 5.33 6.36 5.66 5 6 C5 5.67 5 5.34 5 5 C3.35 4.67 1.7 4.34 0 4 C0 2.68 0 1.36 0 0 Z " fill="#124F1F" transform="translate(127,47)"/>
<path d="M0 0 C2.31 0 4.62 0 7 0 C6.67 1.65 6.34 3.3 6 5 C3.69 5.66 1.38 6.32 -1 7 C-1.33 8.98 -1.66 10.96 -2 13 C-2.33 13 -2.66 13 -3 13 C-3.25 9.6875 -3.25 9.6875 -3 6 C-1 4.0625 -1 4.0625 1 3 C0.67 2.01 0.34 1.02 0 0 Z " fill="#C1D139" transform="translate(70,38)"/>
<path d="M0 0 C0 0.66 0 1.32 0 2 C-9.41002278 4.29612756 -9.41002278 4.29612756 -14 4 C-10.27794693 -0.54917597 -5.52651111 -1.62544444 0 0 Z " fill="#003C0B" transform="translate(42,9)"/>
<path d="M0 0 C0.33 0 0.66 0 1 0 C1.309375 1.423125 1.309375 1.423125 1.625 2.875 C2.70833333 6.29166667 2.70833333 6.29166667 6.125 7.375 C7.07375 7.58125 8.0225 7.7875 9 8 C7.8125 9.5625 7.8125 9.5625 6 11 C3.5 11 3.5 11 1 10 C-0.9375 7.75 -0.9375 7.75 -2 5 C-1.1875 2.1875 -1.1875 2.1875 0 0 Z " fill="#0E4D13" transform="translate(14,44)"/>
<path d="M0 0 C0.33 0 0.66 0 1 0 C1.24042276 4.08718695 0.42258812 7.17679443 -1 11 C-1.66 10.34 -2.32 9.68 -3 9 C-5.58354218 8.83312552 -5.58354218 8.83312552 -8 9 C-8.33 8.01 -8.66 7.02 -9 6 C-6.36 5.34 -3.72 4.68 -1 4 C-0.67 2.68 -0.34 1.36 0 0 Z " fill="#275816" transform="translate(28,40)"/>
<path d="M0 0 C2.31 0 4.62 0 7 0 C7 1.65 7 3.3 7 5 C6.67 3.68 6.34 2.36 6 1 C5.01 1 4.02 1 3 1 C2.7525 1.969375 2.505 2.93875 2.25 3.9375 C1.8375 4.948125 1.425 5.95875 1 7 C-0.32 7.33 -1.64 7.66 -3 8 C-2.01 5.36 -1.02 2.72 0 0 Z " fill="#094A17" transform="translate(10,26)"/>
<path d="M0 0 C0.33 0.66 0.66 1.32 1 2 C3.31 2 5.62 2 8 2 C8.33 2.99 8.66 3.98 9 5 C5.7 5 2.4 5 -1 5 C-0.67 3.35 -0.34 1.7 0 0 Z " fill="#D6D7D6" transform="translate(121,40)"/>
<path d="M0 0 C1 2 1 2 0.5 4.5 C-1 7 -1 7 -4.625 8.3125 C-5.73875 8.539375 -6.8525 8.76625 -8 9 C-8 5 -8 5 -7 4 C-5.00041636 3.95919217 -2.99954746 3.95745644 -1 4 C-0.67 2.68 -0.34 1.36 0 0 Z " fill="#01410E" transform="translate(95,14)"/>
<path d="M0 0 C0 1.32 0 2.64 0 4 C0.99 4.33 1.98 4.66 3 5 C2.67 6.65 2.34 8.3 2 10 C1.34 9.01 0.68 8.02 0 7 C-0.66 7 -1.32 7 -2 7 C-1.67 5.02 -1.34 3.04 -1 1 C-4.3 1 -7.6 1 -11 1 C-11 0.67 -11 0.34 -11 0 C-9.54263913 -0.19491452 -8.08405407 -0.38069358 -6.625 -0.5625 C-5.81289062 -0.66691406 -5.00078125 -0.77132813 -4.1640625 -0.87890625 C-2 -1 -2 -1 0 0 Z " fill="#336039" transform="translate(78,12)"/>
<path d="M0 0 C-0.33 2.31 -0.66 4.62 -1 7 C-1.66 5.68 -2.32 4.36 -3 3 C-3.99 4.485 -3.99 4.485 -5 6 C-5 4.68 -5 3.36 -5 2 C-5.66 2 -6.32 2 -7 2 C-7.33 3.32 -7.66 4.64 -8 6 C-8.33 4.68 -8.66 3.36 -9 2 C-5.5647952 -0.29013653 -4.014669 -0.17842973 0 0 Z " fill="#E3EAE4" transform="translate(119,50)"/>
<path d="M0 0 C1.125 1.6875 1.125 1.6875 2 4 C1.125 6.75 1.125 6.75 0 9 C-0.99 9 -1.98 9 -3 9 C-2.4140625 2.84765625 -2.4140625 2.84765625 -2 1 C-1.34 0.67 -0.68 0.34 0 0 Z " fill="#07410F" transform="translate(78,18)"/>
<path d="M0 0 C1 2 1 2 0.44140625 4.1640625 C0.15136719 4.97617187 -0.13867188 5.78828125 -0.4375 6.625 C-0.72496094 7.44226562 -1.01242188 8.25953125 -1.30859375 9.1015625 C-1.53675781 9.72804688 -1.76492187 10.35453125 -2 11 C-2.66 10.67 -3.32 10.34 -4 10 C-3.67 7.03 -3.34 4.06 -3 1 C-2.01 0.67 -1.02 0.34 0 0 Z " fill="#125014" transform="translate(97,34)"/>
<path d="M0 0 C0 1.32 0 2.64 0 4 C-2.97 3.505 -2.97 3.505 -6 3 C-7.32 4.65 -8.64 6.3 -10 8 C-9.64505955 5.37344067 -9.27538036 3.42031739 -7.8125 1.1875 C-5.20638339 -0.51995571 -3.0400645 -0.20267097 0 0 Z " fill="#DEE63F" transform="translate(46,33)"/>
<path d="M0 0 C1.32 0.33 2.64 0.66 4 1 C5.52164099 3.89111788 6 5.71823412 6 9 C5.01 9 4.02 9 3 9 C2.01 6.03 1.02 3.06 0 0 Z " fill="#E7E7E7" transform="translate(114,26)"/>
<path d="M0 0 C1.24546405 2.49092811 0.7767578 3.41080733 0 6 C1.98 6 3.96 6 6 6 C6.66 7.32 7.32 8.64 8 10 C7.01 9.34 6.02 8.68 5 8 C2.04182816 8.30185427 -0.33437658 8.66718829 -3 10 C-2.69201674 8.51988629 -2.378482 7.04092675 -2.0625 5.5625 C-1.88847656 4.73878906 -1.71445312 3.91507813 -1.53515625 3.06640625 C-1 1 -1 1 0 0 Z " fill="#134216" transform="translate(50,5)"/>
<path d="M0 0 C0.66 0.33 1.32 0.66 2 1 C2.60342066 4.74120806 3 8.21680921 3 12 C1.68 11.34 0.36 10.68 -1 10 C-0.67 6.7 -0.34 3.4 0 0 Z " fill="#3D6543" transform="translate(57,20)"/>
<path d="M0 0 C0.66 0 1.32 0 2 0 C2 2.97 2 5.94 2 9 C0.35 9 -1.3 9 -3 9 C-2.01 6.03 -1.02 3.06 0 0 Z " fill="#204C25" transform="translate(16,11)"/>
<path d="M0 0 C0 0.66 0 1.32 0 2 C-0.99 2.495 -0.99 2.495 -2 3 C-1.01 4.485 -1.01 4.485 0 6 C-3 6 -3 6 -6 4 C-6 3.01 -6 2.02 -6 1 C-4 0 -4 0 0 0 Z " fill="#BED038" transform="translate(28,33)"/>
<path d="M0 0 C1.98 0 3.96 0 6 0 C5.67 0.99 5.34 1.98 5 3 C2.69 3.33 0.38 3.66 -2 4 C-1.34 2.68 -0.68 1.36 0 0 Z " fill="#DDE53F" transform="translate(57,33)"/>
<path d="M0 0 C1.65 0.33 3.3 0.66 5 1 C4.34 2.32 3.68 3.64 3 5 C1.68 4.67 0.36 4.34 -1 4 C-0.67 2.68 -0.34 1.36 0 0 Z " fill="#DEE63F" transform="translate(83,33)"/>
<path d="M0 0 C0.33 0.66 0.66 1.32 1 2 C1.66 2.33 2.32 2.66 3 3 C2.34 3 1.68 3 1 3 C1.95865509 5.33075929 1.95865509 5.33075929 5 7 C3.02 7 1.04 7 -1 7 C-1.625 4.625 -1.625 4.625 -2 2 C-1.34 1.34 -0.68 0.68 0 0 Z " fill="#FEFEFA" transform="translate(106,16)"/>
<path d="M0 0 C-0.33 2.97 -0.66 5.94 -1 9 C-1.66 8.67 -2.32 8.34 -3 8 C-2.67 6.02 -2.34 4.04 -2 2 C-4.31 2 -6.62 2 -9 2 C-9 1.67 -9 1.34 -9 1 C-2.25 0 -2.25 0 0 0 Z " fill="#2F5F38" transform="translate(42,11)"/>
<path d="M0 0 C-0.61277612 2.96175123 -1.25372522 4.38058783 -3 7 C-3 5.02 -3 3.04 -3 1 C-4.98 1 -6.96 1 -9 1 C-9 0.67 -9 0.34 -9 0 C-3.375 -1.125 -3.375 -1.125 0 0 Z " fill="#003F0F" transform="translate(98,31)"/>
<path d="M0 0 C0.99 0.33 1.98 0.66 3 1 C2.34 1 1.68 1 1 1 C1.33 2.32 1.66 3.64 2 5 C0.02 5.33 -1.96 5.66 -4 6 C-4 5.01 -4 4.02 -4 3 C-2.1875 1.25 -2.1875 1.25 0 0 Z " fill="#BFD0C3" transform="translate(100,51)"/>
<path d="M0 0 C0.66 0 1.32 0 2 0 C2 0.99 2 1.98 2 3 C1.34 3 0.68 3 0 3 C-0.33 4.65 -0.66 6.3 -1 8 C-1.66 8 -2.32 8 -3 8 C-2.25 2.25 -2.25 2.25 0 0 Z " fill="#014310" transform="translate(53,43)"/>
<path d="M0 0 C0.66 0 1.32 0 2 0 C1.125 5.75 1.125 5.75 0 8 C-0.66 8 -1.32 8 -2 8 C-1.125 1.125 -1.125 1.125 0 0 Z " fill="#313031" transform="translate(132,37)"/>
<path d="M0 0 C1.4540625 0.0309375 1.4540625 0.0309375 2.9375 0.0625 C3.2675 1.7125 3.5975 3.3625 3.9375 5.0625 C3.2775 5.0625 2.6175 5.0625 1.9375 5.0625 C1.9375 4.0725 1.9375 3.0825 1.9375 2.0625 C0.6175 2.0625 -0.7025 2.0625 -2.0625 2.0625 C-2.3925 2.7225 -2.7225 3.3825 -3.0625 4.0625 C-3.3925 3.0725 -3.7225 2.0825 -4.0625 1.0625 C-3.0625 0.0625 -3.0625 0.0625 0 0 Z " fill="#003503" transform="translate(124.0625,44.9375)"/>
<path d="M0 0 C0.99 0.33 1.98 0.66 3 1 C4.1875 4.0625 4.1875 4.0625 5 7 C4.01 6.67 3.02 6.34 2 6 C1.3125 3.9375 1.3125 3.9375 1 2 C0.34 2 -0.32 2 -1 2 C-1.33 2.66 -1.66 3.32 -2 4 C-2 3.01 -2 2.02 -2 1 C-1.34 0.67 -0.68 0.34 0 0 Z " fill="#0E0E0F" transform="translate(129,30)"/>
<path d="M0 0 C1.32 0 2.64 0 4 0 C4 1.65 4 3.3 4 5 C3.01 5.495 3.01 5.495 2 6 C2 5.01 2 4.02 2 3 C1.01 3 0.02 3 -1 3 C-0.67 2.01 -0.34 1.02 0 0 Z " fill="#073B0E" transform="translate(42,38)"/>
<path d="M0 0 C1.89213369 2.38573379 3.02391783 4.07175348 4 7 C1.36 6.67 -1.28 6.34 -4 6 C-4 5.34 -4 4.68 -4 4 C-2.68 4 -1.36 4 0 4 C0 2.68 0 1.36 0 0 Z " fill="#48484B" transform="translate(112,28)"/>
<path d="M0 0 C1.32 0 2.64 0 4 0 C3.67 2.31 3.34 4.62 3 7 C2.34 7 1.68 7 1 7 C0.67 4.69 0.34 2.38 0 0 Z " fill="#104D1C" transform="translate(85,22)"/>
<path d="M0 0 C1.32 0.66 2.64 1.32 4 2 C4 2.66 4 3.32 4 4 C1.50935112 4.68707555 -0.37886292 5 -3 5 C-1.125 1.125 -1.125 1.125 0 0 Z " fill="#EEF2AF" transform="translate(107,13)"/>
<path d="M0 0 C0.33 0.99 0.66 1.98 1 3 C1.66 3 2.32 3 3 3 C3.33 2.34 3.66 1.68 4 1 C3.67 2.65 3.34 4.3 3 6 C1.68 6 0.36 6 -1 6 C-0.67 4.02 -0.34 2.04 0 0 Z " fill="#6B9373" transform="translate(119,51)"/>
<path d="M0 0 C2.29013653 3.4352048 2.17842973 4.985331 2 9 C1.01 9 0.02 9 -1 9 C-0.67 6.03 -0.34 3.06 0 0 Z " fill="#215114" transform="translate(60,44)"/>
<path d="M0 0 C1.98 0.495 1.98 0.495 4 1 C3.01 1 2.02 1 1 1 C1.33 2.65 1.66 4.3 2 6 C1.01 6.33 0.02 6.66 -1 7 C-0.67 4.69 -0.34 2.38 0 0 Z " fill="#2E2E2F" transform="translate(107,31)"/>
<path d="M0 0 C1.65 1.32 3.3 2.64 5 4 C-1.4 5.23076923 -1.4 5.23076923 -4.4375 4.0625 C-4.953125 3.711875 -5.46875 3.36125 -6 3 C-4.02 3 -2.04 3 0 3 C0 2.01 0 1.02 0 0 Z " fill="#003103" transform="translate(25,28)"/>
<path d="M0 0 C0 1.32 0 2.64 0 4 C-1.65 4 -3.3 4 -5 4 C-5 3.01 -5 2.02 -5 1 C-3 0 -3 0 0 0 Z " fill="#FBFBF4" transform="translate(118,21)"/>
</svg>
